<svg xmlns="http://www.w3.org/2000/svg" viewBox="0 0 410 410"><path d="M252.801 276.801a8 8 0 0 0 0 16c4.414 0 8-3.586 8-8 0-4.418-3.586-8-8-8zm0 0"/><path d="M369.602 0H40C17.945 0 0 17.945 0 40v244.801c0 22.054 17.945 40 40 40h124.801v36.801h-8c-10.684 0-20.723 4.16-28.281 11.718-7.559 7.559-11.719 17.598-11.719 28.282a8 8 0 0 0 8 8h160a8 8 0 0 0 8-8c0-22.059-17.946-40-40-40h-8v-36.801h124.801c22.054 0 40-17.946 40-40V40c0-22.055-17.946-40-40-40zM40 16h329.602c13.234 0 24 10.766 24 24v204.801h-36.801v-184a8 8 0 0 0-8-8h-64a8 8 0 0 0-8 8v184h-40.043a738.526 738.526 0 0 0-.645-24.344c-1.402-32.582-4.59-54.406-6.25-64.008 16.504-12.152 21.012-34.676 10.922-52.176l-27.73-48.027a8.006 8.006 0 0 0-6.926-4 8.008 8.008 0 0 0-6.93 4l-27.738 48.027c-9.516 16.5-6.141 37.875 8.801 50.485-1.731 9.574-5.223 32.179-6.742 65.683a708.21 708.21 0 0 0-.676 24.36h-40.043v-120c0-1.27-.301-2.426-.793-3.453-.02-.043-.031-.086-.051-.125l-32-64a7.998 7.998 0 0 0-7.156-4.422 7.998 7.998 0 0 0-7.156 4.422l-32 64c-.02.039-.032.082-.051.125a7.938 7.938 0 0 0-.793 3.453v120H16V40c0-13.234 10.766-24 24-24zm252.801 228.801v-176h48v16h-8a8 8 0 0 0 0 16h8v24h-8a8 8 0 0 0 0 16h8v24h-8a8 8 0 0 0 0 16h8v32h-8a8 8 0 0 0 0 16h8v16h-48zm-86.672-80.555c2.906 0 5.801-.332 8.629-.957 1.484 9.516 3.668 26.352 4.957 49.512h-29.777c1.351-23.145 3.636-40.246 5.214-50.082a40.104 40.104 0 0 0 10.977 1.527zm0-16c-18.285 0-30.074-19.898-20.809-35.973l20.809-36.027 20.797 36.024c9.23 16.007-2.399 35.976-20.797 35.976zm-16.926 80.555h31.215c.168 5.254.285 10.601.34 16h-31.914c.058-5.364.179-10.711.359-16zm-88.402 16v-112h16v112h-16zm-32 0v-112h16v112h-16zm4.941-128l19.059-38.114 19.054 38.114H73.742zM275.43 393.602H134.164c1.172-3.336 3.094-6.391 5.668-8.969 4.535-4.535 10.563-7.031 16.969-7.031h96c10.429 0 19.328 6.687 22.629 16zm-46.629-32h-48v-36.801h48v36.801zm140.801-52.801H40c-13.234 0-24-10.766-24-24v-24h377.602v24c0 13.234-10.766 24-24 24zm0 0"/><path d="M220.801 276.801h-48a8 8 0 0 0 0 16h48a8 8 0 0 0 0-16zm0 0"/></svg>