<svg xmlns="http://www.w3.org/2000/svg" xmlns:xlink="http://www.w3.org/1999/xlink" viewBox="0 0 432 496" fill="#0c81bf"><path d="M137.973 98.68c-15.129 5.711-25.965 20.222-25.965 37.324 0 6.586 1.75 12.715 4.582 18.203-11.996 4.613-20.582 16.184-20.582 29.797 0 13.617 8.586 25.184 20.582 29.801-2.832 5.488-4.582 11.617-4.582 18.199 0 17.105 10.836 31.617 25.965 37.328-1.2 3.352-1.969 6.914-1.969 10.672 0 17.648 14.351 31.996 32 31.996 3.984 0 7.762-.824 11.281-2.148C184.469 320.547 195.34 328 208.004 328c17.648 0 32-14.352 32-31.996V72.008c0-17.645-14.352-32-32-32-12.664 0-23.535 7.457-28.719 18.152-3.519-1.328-7.297-2.152-11.281-2.152-17.649 0-32 14.355-32 32 0 3.762.769 7.32 1.969 10.672zm30.031-26.672c8.824 0 16 7.176 16 16h16c0-7.688-2.84-14.664-7.375-20.184 1.855-6.781 8.008-11.816 15.375-11.816 8.824 0 16 7.176 16 16v223.996c0 8.824-7.176 15.996-16 15.996-7.367 0-13.52-5.027-15.375-11.812 4.535-5.52 7.375-12.493 7.375-20.184h-16c0 8.824-7.176 16-16 16s-16-7.176-16-16 7.176-16 16-16v-16c-7.793 0-14.848 2.914-20.399 7.555-11.136-2.075-19.601-11.825-19.601-23.555 0-13.231 10.769-24 24-24 13.234 0 24 10.769 24 24h16c0-22.055-17.942-40-40-40-9.039 0-17.297 3.129-24 8.211v-.211c-8.824 0-15.996-7.176-15.996-16s7.172-16 15.996-16v-.207c6.703 5.082 14.961 8.207 24 8.207 22.058 0 40-17.942 40-40h-16c0 13.234-10.766 24-24 24-13.231 0-24-10.766-24-24 0-11.727 8.465-21.477 19.601-23.551 5.551 4.641 12.606 7.551 20.399 7.551v-16c-8.824 0-16-7.172-16-15.996 0-8.824 7.176-16 16-16zm0 0"/><defs><path id="a" d="M0 0h432v496H0z"/></defs><clipPath id="b"><use xlink:href="#a" overflow="visible"/></clipPath><path d="M328 56.008c-3.984 0-7.758.824-11.273 2.152-5.188-10.695-16.059-18.152-28.723-18.152-17.649 0-32 14.355-32 32v223.996c0 17.644 14.351 31.996 32 31.996 12.664 0 23.535-7.453 28.723-18.148C320.242 311.176 324.016 312 328 312c17.648 0 32-14.348 32-31.996 0-3.758-.766-7.32-1.969-10.672C373.16 263.621 384 249.109 384 232.004c0-6.582-1.75-12.711-4.582-18.199 12-4.617 20.582-16.184 20.582-29.801 0-13.613-8.582-25.184-20.582-29.797 2.832-5.488 4.582-11.617 4.582-18.203 0-17.102-10.84-31.613-25.969-37.324 1.203-3.352 1.969-6.91 1.969-10.672 0-17.645-14.352-32-32-32zm40 79.996c0 13.234-10.766 24-24 24-13.23 0-24-10.766-24-24h-15.996c0 22.058 17.941 40 39.996 40 9.039 0 17.297-3.125 24-8.207v.207c8.824 0 16 7.176 16 16s-7.176 16-16 16v.211c-6.703-5.082-14.961-8.211-24-8.211-22.055 0-39.996 17.945-39.996 40H320c0-13.231 10.77-24 24-24 13.234 0 24 10.769 24 24 0 11.73-8.465 21.48-19.598 23.555-5.554-4.641-12.609-7.555-20.402-7.555v16c8.824 0 16 7.176 16 16s-7.176 16-16 16-15.996-7.176-15.996-16h-16c0 7.691 2.84 14.664 7.375 20.184-1.856 6.785-8.008 11.812-15.375 11.812-8.824 0-16-7.172-16-15.996V72.008c0-8.824 7.176-16 16-16 7.367 0 13.519 5.035 15.375 11.816-4.535 5.52-7.375 12.496-7.375 20.184h16c0-8.824 7.172-16 15.996-16 8.824 0 16 7.176 16 16s-7.176 15.996-16 15.996v16c7.793 0 14.848-2.91 20.402-7.551C359.535 114.527 368 124.277 368 136.004zm0 0" clip-path="url(#b)"/><path d="M373.977 49.898C336.594 14.762 287.637-2.855 236.254.379l.992 15.965c46.949-2.918 91.633 13.136 125.777 45.211C397.184 93.656 416 137.148 416 184.004c0 56.465-28.145 108.824-75.289 140.062-16.262 10.782-28.563 26.161-36.145 43.934H191.109c-7.687-17.902-20.039-33.391-36.328-44.27-48.582-32.468-76.5-86.699-74.683-145.085l-15.993-.497c-1.992 63.938 28.59 123.336 81.79 158.879 11.75 7.856 21.132 18.551 27.671 30.973h-21.562v16h27.945c1.551 5.184 2.793 10.496 3.422 16h-15.367v16h16v24c0 4.426 3.586 8 8 8h8c0 26.473 21.527 48 48 48s48-21.527 48-48h8c4.418 0 8-3.574 8-8v-24H328v-16h-15.434c.567-5.496 1.696-10.824 3.215-16H344v-16h-21.91c6.445-12.285 15.773-22.848 27.465-30.59C401.176 303.18 432 245.836 432 184.004c0-50.574-21.152-99.457-58.023-134.106zM248.004 480c-17.649 0-32-14.352-32-32h64c0 17.648-14.352 32-32 32zm48-48h-96v-16h96v16zm.57-32h-97.211c-.535-5.445-1.398-10.797-2.711-16h102.41c-1.273 5.195-2.011 10.57-2.488 16zm0 0" clip-path="url(#b)"/><path d="M56.008 56.008c17.648 0 32 14.355 32 32 0 4.426 3.586 8 8 8 4.418 0 8-3.574 8-8 0-17.645 14.347-32 31.996-32 4.418 0 8-3.574 8-8 0-4.422-3.582-8-8-8-17.649 0-31.996-14.352-31.996-32a8 8 0 0 0-16 0c0 17.648-14.352 32-32 32a8 8 0 0 0-8 8c0 4.426 3.586 8 8 8zm40-21.496a48.416 48.416 0 0 0 13.496 13.496 48.443 48.443 0 0 0-13.496 13.496 48.416 48.416 0 0 0-13.496-13.496 48.39 48.39 0 0 0 13.496-13.496zm-8 101.492c4.418 0 8-3.574 8-8 0-4.422-3.582-8-8-8-17.649 0-32-14.352-32-31.996a8 8 0 0 0-16 0c0 17.644-14.352 31.996-32 31.996a8 8 0 0 0-8 8c0 4.426 3.586 8 8 8 17.648 0 32 14.355 32 32 0 4.426 3.586 8 8 8 4.418 0 8-3.574 8-8 0-17.645 14.351-32 32-32zm-40 5.496a48.43 48.43 0 0 0-13.496-13.496 48.482 48.482 0 0 0 13.496-13.496 48.509 48.509 0 0 0 13.496 13.496A48.456 48.456 0 0 0 48.008 141.5zm0 0"/></svg>