<svg xmlns="http://www.w3.org/2000/svg" viewBox="-49 141 512 512" fill="#0c81bf"><path d="M172.61 319.733a36.26 36.26 0 0 0 15.202 3.343c13.807 0 27.042-7.875 33.186-21.216 8.412-18.269.395-39.976-17.874-48.389-8.848-4.074-18.756-4.46-27.896-1.085-9.139 3.376-16.418 10.108-20.493 18.959-4.076 8.849-4.461 18.756-1.085 27.896 3.377 9.14 10.111 16.415 18.96 20.492zm-4.247-42.115a21.336 21.336 0 0 1 12.064-11.162 21.471 21.471 0 0 1 7.452-1.342c3.059 0 6.109.663 8.971 1.981 10.755 4.953 15.475 17.733 10.522 28.489-4.953 10.756-17.735 15.477-28.489 10.522a21.331 21.331 0 0 1-11.161-12.064 21.34 21.34 0 0 1 .641-16.424zm-53.309 206.017l25.608 11.792a7.502 7.502 0 0 0 6.274-13.626l-23.65-10.89 18.09-27.957c.194-.299.366-.613.516-.937a23.097 23.097 0 0 0 .691-17.782 23.098 23.098 0 0 0-12.084-13.063 23.098 23.098 0 0 0-17.782-.691 23.098 23.098 0 0 0-13.063 12.084 7.587 7.587 0 0 0-.377 1.001l-9.483 31.915-18.826-8.668c5.573-56.71 21.607-130.977 39.566-182.747a7.5 7.5 0 0 0-14.172-4.916c-18.876 54.413-35.664 133.199-40.826 191.593a7.5 7.5 0 0 0 4.333 7.473l25.608 11.792-9.009 30.319c-1.702 5.729 1.003 11.703 6.432 14.203a11.992 11.992 0 0 0 5.027 1.112c3.913 0 7.676-1.949 9.946-5.458l17.181-26.549zm-1.575-55.2a8.193 8.193 0 0 1 4.436-3.883c2.067-.764 4.308-.676 6.31.246s3.524 2.568 4.288 4.635a8.189 8.189 0 0 1-.067 5.894l-31.462 48.622 16.495-55.514z"/><path d="M410.682 241.923a7.501 7.501 0 0 0-7.084-2.369l-29.081 5.85c-.37.075-.759.052-1.119-.066l-28.414-9.291c-20.051-6.547-41.685 4.432-48.229 24.47l-3.14 9.603c.309-3.93.455-7.937.423-12.022.037-.321.054-.646.05-.973-.872-57.204-34.867-110.47-36.313-112.71a7.487 7.487 0 0 0-6.956-3.385c-.116.01-.231.006-.347.022l-.237.033c-4.903.687-65.858 9.846-109.014 45.638-.253.21-.489.435-.709.672-14.175 11.935-24.905 25.541-31.79 40.489l-1.23 2.711a7.5 7.5 0 0 0 13.675 6.163l1.194-2.634c5.915-12.842 14.68-23.672 24.911-32.789l131.796 60.696c-.287 13.691-2.828 27.39-8.746 40.241-8.177 17.764-21.563 40.446-38.797 65.782l-78.381-8.754-.106-.011c-12.675-1.237-23.979 8.072-25.211 20.742-.014.147-.02.293-.031.439-.019.242-.041.483-.052.724-.005.103-.004.205-.007.307-.01.292-.019.584-.018.874l.002.092c.036 5.273 1.859 10.334 5.256 14.463.099.12.21.225.311.343a22.68 22.68 0 0 0 1.618 1.707 23.907 23.907 0 0 0 2.614 2.151 23.51 23.51 0 0 0 1.962 1.244c.289.163.581.319.876.469.427.218.861.425 1.304.616.208.09.419.174.63.257.542.215 1.092.417 1.655.592.112.035.227.063.34.096.629.185 1.267.349 1.919.481.049.01.098.017.147.026.707.138 1.424.248 2.155.321l65.674 7.334-24.338 32.87-.03.036-12.044 16.264c-.023.032-.039.068-.062.1a7.528 7.528 0 0 0-.538.865l-.003.005c-.011.022-.027.041-.039.062l-2.325 4.169c-.021.039-.04.078-.062.117L96.967 606.504a7.5 7.5 0 0 0 2.644 10.055l34.381 20.98a7.493 7.493 0 0 0 9.863-1.844l62.742-81.993a7.5 7.5 0 0 0-11.912-9.116l-58.641 76.632-22.463-13.708 51.54-92.415 8.447-15.142c2.896 6.231 7.591 11.708 13.873 15.589l69.12 42.683-20.64 73.936a7.5 7.5 0 0 0 5.116 9.214l38.663 11.319a7.5 7.5 0 0 0 9.327-5.168L319.3 539.834c3.521-12.018-1.508-24.938-12.229-31.419l-45.47-27.49 45.945-62.059c5.063-6.85 7.739-14.947 7.739-23.419 0-12.438-5.965-24.285-15.96-31.69-14.271-10.558-33.396-10.012-46.966.079 10.962-16.804 20.069-32.266 26.916-45.7-1.638 20.656 10.963 40.567 31.501 47.277a45.718 45.718 0 0 0 14.278 2.284 45.8 45.8 0 0 0 43.64-31.659l6.479-19.811.002-.004a45.777 45.777 0 0 0 2.248-12.946c12.218-4.667 21.924-14.668 26.032-27.255l8.75-26.791a7.487 7.487 0 0 0-1.523-7.308zm-250.134-50.987c32.827-22.706 73.403-31.692 87.136-34.215 4.161 7.158 12.73 22.953 19.871 42.884l.087.243c.708 1.982 1.4 4.006 2.073 6.065l.241.744c.244.756.485 1.517.724 2.282l.278.894c.296.964.588 1.934.874 2.912.088.3.172.604.258.905a208.07 208.07 0 0 1 1.394 5.092c.133.512.268 1.024.397 1.539.141.56.276 1.123.413 1.686a199.407 199.407 0 0 1 1.343 5.932c.076.364.15.729.224 1.094.456 2.248.873 4.515 1.244 6.8.048.297.097.593.144.89a153.735 153.735 0 0 1 .443 3.019 157.9 157.9 0 0 1 .659 5.481l-117.803-54.247zm-4.104 200.092l-6.32-.706a7.997 7.997 0 0 1-.919-.132c-.031-.006-.061-.016-.093-.023a8.099 8.099 0 0 1-6.339-6.965c-.003-.03-.01-.06-.013-.09a7.925 7.925 0 0 1-.033-.599c-.002-.072-.01-.143-.011-.215-.001-.192.014-.386.027-.58.005-.079.004-.156.011-.235.005-.052.016-.102.022-.154.025-.213.053-.426.094-.633.022-.114.055-.224.082-.336.034-.142.066-.285.107-.424.038-.126.085-.248.129-.372.042-.118.081-.238.128-.353.054-.131.115-.258.175-.385.048-.102.093-.204.145-.303.069-.132.145-.259.221-.386.052-.087.103-.176.158-.261.084-.13.175-.255.267-.38.055-.076.11-.152.167-.225.1-.126.204-.248.311-.368.057-.064.114-.129.173-.191.114-.12.232-.235.353-.348.06-.055.119-.111.18-.164a7.981 7.981 0 0 1 1.196-.872c.147-.088.296-.172.448-.25.07-.036.141-.069.212-.103.153-.073.307-.144.465-.207.077-.031.156-.058.234-.087a7.74 7.74 0 0 1 .473-.161c.086-.026.174-.046.262-.069.156-.041.312-.082.471-.113.1-.02.202-.033.304-.049.15-.024.299-.049.452-.064.124-.012.25-.015.375-.022.133-.007.265-.018.4-.019.257-.001.516.008.777.032l2.625.293 4.465.499-2.181 16.02zm142.864 130.228l.002.001c4.903 2.963 7.204 8.87 5.572 14.442l-28.243 100.472-24.279-7.108 20.166-72.237a7.5 7.5 0 0 0-3.283-8.398l-73.919-45.645a21.287 21.287 0 0 1-7.447-28.477l2.276-4.079 7.651-10.332 25.587 15.465 75.917 45.896zM290.4 375.817c6.282 4.654 9.885 11.811 9.885 19.635 0 5.237-1.66 10.252-4.798 14.497l-46.778 63.184-16.802-10.155-25.133-15.194 24.648-33.289 37.269 4.162.106.011a23.54 23.54 0 0 0 2.276.111c5.33 0 10.453-1.829 14.623-5.26a22.932 22.932 0 0 0 8.31-15.591 22.935 22.935 0 0 0-5.149-16.901 22.931 22.931 0 0 0-15.534-8.304l-4.787-.535c7.2-2.268 15.349-1.19 21.864 3.629zm-18.693 11.819l.106.011c4.436.431 7.694 4.392 7.263 8.828a8.025 8.025 0 0 1-2.91 5.459 8.038 8.038 0 0 1-5.873 1.808l-98.936-11.049 2.183-16.021 74.801 8.354.08.009 23.286 2.601zm89.212-76.069l-6.481 19.815a30.838 30.838 0 0 1-29.382 21.318c-3.266 0-6.496-.517-9.61-1.539-16.208-5.295-25.086-22.788-19.792-38.993l1.912-5.852 15.538 5.081c.347.114.697.191 1.046.253a7.453 7.453 0 0 0 1.251.118c.011 0 .023.003.035.003.029 0 .058-.006.087-.007a7.57 7.57 0 0 0 .978-.077c.051-.007.103-.012.153-.02a7.4 7.4 0 0 0 1.001-.239c.059-.018.116-.039.174-.059.33-.112.655-.239.966-.395l.002-.001a7.493 7.493 0 0 0 1.058-.653c.275-.2.538-.417.785-.654.035-.034.068-.071.102-.106.223-.223.432-.462.626-.714.035-.045.072-.088.106-.134.203-.276.386-.57.551-.877.036-.067.069-.135.103-.202.162-.323.309-.655.426-1.007l.409-1.236c.098-.3.21-.591.335-.873.02-.044.044-.085.064-.129.11-.24.226-.476.355-.702l.017-.027a9.249 9.249 0 0 1 8.055-4.625l.076-.002c.238.003.477.023.717.046.067.006.134.007.201.014.208.024.417.065.626.104.095.018.191.028.286.049.3.066.599.146.896.244l13.752 4.5a44.94 44.94 0 0 0 2.557.743c.143.037.286.077.429.112a44.05 44.05 0 0 0 2.554.56c.106.02.211.037.317.056 1.792.323 3.599.534 5.41.629l.307.017c.75.034 1.5.056 2.249.05a30.875 30.875 0 0 1-1.247 5.411zm28.279-40.197c-3.132 9.593-11.215 16.915-21.102 19.108a28.589 28.589 0 0 1-15.087-.747l-13.753-4.501a24.865 24.865 0 0 0-1.86-.521c-.076-.018-.152-.039-.228-.056a24.404 24.404 0 0 0-2.007-.376 24.056 24.056 0 0 0-14.391 2.375c-.245.124-.479.263-.718.394l-.147.081a24.151 24.151 0 0 0-6.03 4.757l-.071.078c-.42.462-.823.938-1.206 1.431l-.05.063a23.84 23.84 0 0 0-1.146 1.605l-9.148-2.991-.029-.01 8.79-26.883c3.976-12.176 17.123-18.848 29.311-14.87l28.41 9.29a17.246 17.246 0 0 0 8.741.514l16.482-3.315-4.761 14.574zM83.452 620.879H8.922a7.5 7.5 0 0 0 0 15h74.53a7.5 7.5 0 0 0 0-15zm0-43.054H31.078a7.5 7.5 0 0 0 0 15h52.374a7.5 7.5 0 0 0 0-15zm0-43.054H61.291a7.5 7.5 0 0 0 0 15h22.161a7.5 7.5 0 0 0 0-15z"/></svg>