<svg xmlns="http://www.w3.org/2000/svg" viewBox="0 0 120 100" width="17" height="14" fill="#1b99d3"><path d="M12.211 32.289c1.477 1.043 5.93 4.137 13.359 9.285a3400.43 3400.43 0 0 1 17.078 11.895c.434.304 1.36.968 2.77 1.988a132.365 132.365 0 0 0 3.52 2.476 65.703 65.703 0 0 0 3.39 2.121c1.324.782 2.574 1.368 3.746 1.758 1.176.391 2.262.586 3.262.586h.129c1 0 2.086-.195 3.262-.586 1.171-.39 2.421-.98 3.746-1.758a69.364 69.364 0 0 0 3.39-2.121c.934-.629 2.106-1.453 3.516-2.476 1.414-1.02 2.34-1.684 2.773-1.988 3.996-2.782 14.164-9.84 30.504-21.184 3.172-2.215 5.821-4.887 7.949-8.016 2.129-3.129 3.196-6.406 3.196-9.84 0-2.867-1.035-5.324-3.098-7.367C112.641 5.019 110.195 4 107.371 4H11.43C8.082 4 5.508 5.129 3.703 7.39 1.902 9.648 1 12.472 1 15.863c0 2.738 1.195 5.703 3.586 8.899 2.387 3.191 4.93 5.703 7.625 7.527zm0 0"/><path d="M111.281 39.262c-14.25 9.644-25.07 17.14-32.457 22.484-2.476 1.828-4.488 3.25-6.031 4.269-1.539 1.024-3.594 2.067-6.156 3.129-2.567 1.067-4.953 1.598-7.172 1.598h-.129c-2.219 0-4.609-.531-7.172-1.598-2.562-1.062-4.617-2.105-6.16-3.129-1.539-1.019-3.551-2.441-6.027-4.269-5.868-4.301-16.665-11.797-32.395-22.484A34.572 34.572 0 0 1 1 33.59v51.75c0 2.871 1.02 5.324 3.062 7.367 2.043 2.043 4.5 3.062 7.368 3.062h95.941c2.867 0 5.324-1.019 7.367-3.062s3.063-4.496 3.063-7.367V33.59c-1.871 2.086-4.043 3.976-6.52 5.672zm0 0"/></svg>