<svg xmlns="http://www.w3.org/2000/svg" viewBox="0 0 140 140" width="22" height="22"><path d="M99.926 3H39.324C18.742 3 2 19.743 2 40.325v60.601c0 20.582 16.742 37.324 37.324 37.324h60.602c20.582 0 37.324-16.746 37.324-37.324V40.325C137.25 19.743 120.508 3 99.926 3zm25.324 97.926c0 13.965-11.359 25.324-25.324 25.324H39.324C25.359 126.25 14 114.891 14 100.926V40.325C14 26.36 25.359 15 39.324 15h60.602c13.965 0 25.324 11.36 25.324 25.325v60.601zm0 0"/><path d="M69.625 35.778c-19.219 0-34.852 15.633-34.852 34.847 0 19.219 15.633 34.852 34.852 34.852 19.215 0 34.852-15.633 34.852-34.852 0-19.214-15.637-34.847-34.852-34.847zm0 57.695c-12.598 0-22.852-10.246-22.852-22.848 0-12.597 10.25-22.851 22.852-22.851s22.852 10.254 22.852 22.851c0 12.602-10.254 22.848-22.852 22.848zm36.313-67.871a8.827 8.827 0 0 0-6.215 2.574 8.833 8.833 0 0 0-2.586 6.227c0 2.312.945 4.582 2.586 6.222a8.853 8.853 0 0 0 6.215 2.575c2.32 0 4.582-.942 6.222-2.575a8.866 8.866 0 0 0 2.578-6.222 8.843 8.843 0 0 0-2.578-6.227 8.833 8.833 0 0 0-6.222-2.574zm0 0"/></svg>