<svg xmlns="http://www.w3.org/2000/svg" viewBox="-49 141 512 512" fill="#0c81bf"><path d="M154.911 529.208a7.5 7.5 0 0 0-6.048 8.714 64.019 64.019 0 0 1 1.012 11.353v66.612H-34v-66.612c0-34.974 28.453-63.427 63.426-63.427h10.019l-20.583 69.957a7.498 7.498 0 0 0 1.829 7.356l31.879 32.65a7.502 7.502 0 0 0 10.732 0l31.879-32.65a7.499 7.499 0 0 0 1.829-7.356l-20.583-69.957h10.019c20.858 0 40.391 10.266 52.252 27.462a7.5 7.5 0 1 0 12.348-8.518c-14.661-21.255-38.811-33.944-64.6-33.944h-57.02C-13.818 470.848-49 506.03-49 549.275v74.112a7.5 7.5 0 0 0 7.5 7.5h198.875a7.5 7.5 0 0 0 7.5-7.5v-74.112c0-4.705-.421-9.422-1.25-14.019-.737-4.075-4.642-6.777-8.714-6.048zm-94.117-43.36l20.588 69.978-23.445 24.012-23.445-24.012 20.588-69.978h5.714zm-2.856-30.801c48.779 0 88.464-39.685 88.464-88.464v-39.034c0-.789-.011-1.575-.032-2.359-.004-.166-.014-.33-.019-.495a89.627 89.627 0 0 0-.076-1.876c-.008-.152-.02-.303-.029-.455a87.605 87.605 0 0 0-.131-1.93l-.029-.331a93.041 93.041 0 0 0-.195-2.058c-.007-.069-.016-.137-.024-.206a87.674 87.674 0 0 0-.267-2.188l-.011-.077a87.725 87.725 0 0 0-7.144-24.677c-.091-.199-.186-.396-.278-.594a93.505 93.505 0 0 0-.643-1.357c-.166-.342-.338-.682-.509-1.022-.148-.294-.295-.589-.447-.881a85.295 85.295 0 0 0-.981-1.843 88.257 88.257 0 0 0-.858-1.533l-.133-.231a88.6 88.6 0 0 0-18.81-22.774 7.08 7.08 0 0 0-.287-.26c-.359-.308-.732-.595-1.095-.897-.229-.19-.459-.377-.69-.565a89.553 89.553 0 0 0-7.193-5.281c-.244-.16-.486-.324-.731-.482a88.581 88.581 0 0 0-2.902-1.791l-.323-.191a87.814 87.814 0 0 0-36.686-11.748l-.151-.013a87.167 87.167 0 0 0-3.708-.249c-.131-.006-.263-.01-.394-.015a90.266 90.266 0 0 0-3.688-.083 88.312 88.312 0 0 0-59.02 22.565 7.5 7.5 0 1 0 10.011 11.17 73.333 73.333 0 0 1 49.009-18.735c1.172 0 2.337.034 3.496.089.501.024.999.066 1.499.1.634.043 1.267.086 1.897.145.651.062 1.3.138 1.948.217.449.054.897.109 1.343.171a74.465 74.465 0 0 1 3.166.516c.851.158 1.7.326 2.544.513.15.033.299.07.449.104a73.54 73.54 0 0 1 17.294 6.331c.225.117.453.229.677.347.644.341 1.28.699 1.914 1.06.389.221.778.441 1.163.669.509.301 1.012.613 1.515.927a72.8 72.8 0 0 1 4.533 3.075c.268.197.536.393.801.593a75.85 75.85 0 0 1 2.168 1.704c.144.118.29.233.434.352.592.491 1.168 1.002 1.744 1.511a74.663 74.663 0 0 1 2.841 2.64c.41.401.81.811 1.209 1.221.485.499.97.999 1.441 1.511.348.379.684.766 1.023 1.151.488.554.979 1.106 1.451 1.675.286.344.556.699.836 1.049a73.694 73.694 0 0 1 4.497 6.274c.347.543.703 1.081 1.036 1.632.278.46.537.932.805 1.398.367.639.735 1.278 1.083 1.927.227.424.44.856.659 1.285a73.29 73.29 0 0 1 1.066 2.16c.183.389.357.784.533 1.177a66.762 66.762 0 0 1 1.443 3.453 73.066 73.066 0 0 1 2.114 6.293c.089.309.18.617.264.928.257.944.49 1.896.709 2.851.068.299.142.595.207.895.209.968.391 1.943.561 2.92.052.3.113.598.161.899.158.978.285 1.962.403 2.948.037.31.085.615.118.926.107 1.002.181 2.011.247 3.021.019.296.052.588.068.885.069 1.301.107 2.607.107 3.917v6.373c-15.306-3.756-28.651-13.194-37.417-26.702a7.504 7.504 0 0 0-5.698-3.394 7.496 7.496 0 0 0-6.162 2.452c-16.895 18.721-41.02 29.457-66.188 29.457-10.848 0-21.41-1.926-31.464-5.732v-2.454c0-11.367 2.523-22.261 7.5-32.379a7.5 7.5 0 0 0-3.419-10.04 7.498 7.498 0 0 0-10.041 3.419c-5.999 12.196-9.041 25.317-9.041 39v39.034c-.001 48.782 39.683 88.466 88.463 88.466zm-73.464-109.171c10.142 3.225 20.682 4.859 31.464 4.859 26.361 0 51.74-10.079 70.929-27.918 11.387 13.721 27.044 23.024 44.535 26.446v17.32c0 40.508-32.956 73.464-73.464 73.464s-73.464-32.956-73.464-73.464v-20.707z"/><path d="M57.937 397.384H67.5c4.142 0 7.5-3.357 7.5-7.5s-3.358-7.5-7.5-7.5h-2.063v-17.492c0-4.143-3.358-7.5-7.5-7.5s-7.5 3.357-7.5 7.5v24.992a7.5 7.5 0 0 0 7.5 7.5zm33.757-196.341a237.339 237.339 0 0 1 78.836 11.951 7.489 7.489 0 0 0 9.256-4.194l14.95-35.257a7.5 7.5 0 0 0-.739-7.198c-1.464-2.113-3.906-3.352-6.479-3.223-7.257.303-14.509.896-21.556 1.766-26.932 3.316-53.012 10.662-77.514 21.832a7.5 7.5 0 0 0-4.204 8.481c.786 3.466 3.857 5.881 7.45 5.842zm76.103-21.268c2.764-.34 5.561-.636 8.38-.886l-7.541 17.783a252.174 252.174 0 0 0-40.776-8.656 251.398 251.398 0 0 1 39.937-8.241zm294.946 236.382a7.504 7.504 0 0 0-2.649-5.396 7.49 7.49 0 0 0-5.76-1.717l-113.07 13.93a7.499 7.499 0 0 0-6.576 7.769c.067 1.549.115 3.098.145 4.646.077 4.143 3.514 7.457 7.64 7.358a7.504 7.504 0 0 0 7.139-5.688l98.374-12.119c.492 42.446-9.851 84.183-30.133 121.55l-78.61-33.328a253.468 253.468 0 0 0 5.165-20.263c22.742 5.556 39.601 9.674 42.994 10.504.217.054.436.097.654.13.802.151 1.609.226 2.412.226 3.883 0 7.65-1.735 10.131-4.811a12.914 12.914 0 0 0 2.819-9.523 12.903 12.903 0 0 0-4.747-8.747 12.56 12.56 0 0 0-2.401-1.518 7.272 7.272 0 0 0-.769-.373 847001.59 847001.59 0 0 1-153.958-64.361c-6.285-20.666-26.92-34.378-48.75-31.701-24.717 3.053-42.354 25.648-39.314 50.369 2.812 22.857 22.336 39.659 44.813 39.659a45.31 45.31 0 0 0 5.55-.341c7.859-.97 15.2-3.932 21.463-8.613l104.525 25.539a237.558 237.558 0 0 1-6.909 25.718 7.501 7.501 0 0 0 4.194 9.258l91.07 38.61a7.502 7.502 0 0 0 9.423-3.154c25.204-43.653 37.354-93.314 35.135-143.613zm-260.739 41.367a30.383 30.383 0 0 1-3.707.229c-15.012-.002-28.056-11.224-29.934-26.49-2.03-16.516 9.752-31.611 26.261-33.65a29.915 29.915 0 0 1 3.645-.224c14.082 0 26.699 9.984 29.601 24.061.152.726.283 1.525.396 2.429 1.209 9.785-2.46 19.568-9.816 26.169l-.003.003c-4.595 4.128-10.282 6.712-16.443 7.473zm34.968-6.599c.211-.349.406-.705.607-1.059.237-.418.477-.835.7-1.26.192-.364.369-.734.55-1.103.21-.426.421-.852.617-1.285.171-.377.328-.759.488-1.14.183-.436.367-.87.536-1.311.149-.388.285-.779.423-1.17.157-.444.313-.887.456-1.336.127-.397.241-.798.357-1.199.13-.45.258-.9.374-1.354.104-.407.196-.817.289-1.227.103-.456.203-.911.291-1.37.08-.416.151-.833.219-1.251.075-.458.147-.917.208-1.377a49.3 49.3 0 0 0 .148-1.276c.027-.259.067-.517.09-.777 39.335 16.447 92.341 38.606 122.775 51.327l-29.479-7.201-99.793-24.382c.051-.082.094-.167.144-.249zm163.375 132.492l-83.356-35.346a7.503 7.503 0 0 0-9.563 3.41c-13.185 25.031-30.527 47.352-51.545 66.34a7.501 7.501 0 0 0 5.028 13.066h104.098c1.784 0 3.51-.636 4.867-1.794 12.145-10.358 23.366-21.807 33.351-34.024a7.5 7.5 0 0 0-2.88-11.652zm-38.126 32.47h-82.839a254.222 254.222 0 0 0 38.017-51.349l67.685 28.7a252.377 252.377 0 0 1-22.863 22.649zM206.967 228.473c25.397 13.376 47.983 31.008 67.13 52.405a7.488 7.488 0 0 0 5.593 2.499 7.478 7.478 0 0 0 4.513-1.512l72.287-54.515a7.5 7.5 0 0 0-.034-12.002c-36.406-27.138-79.322-44.533-124.106-50.308a7.498 7.498 0 0 0-7.864 4.511l-20.929 49.359a7.499 7.499 0 0 0 3.41 9.563zm29.081-47.766c36.904 5.629 72.307 19.632 103.255 40.816l-58.7 44.269a254.361 254.361 0 0 0-60.58-47.292l16.025-37.793z"/><path d="M297.968 312.46c15.313 24.206 26.037 50.77 31.876 78.953a7.5 7.5 0 0 0 8.261 5.921l113.067-13.927a7.499 7.499 0 0 0 6.432-8.94c-10.049-49.335-33.886-94.562-68.936-130.79a7.498 7.498 0 0 0-9.906-.773l-78.973 59.558a7.502 7.502 0 0 0-1.821 9.998zm84.463-53.533c28.745 31.327 48.906 69.306 58.726 110.603l-98.118 12.085c-5.932-25.199-15.589-49.119-28.776-71.278l68.168-51.41z"/></svg>