<svg xmlns="http://www.w3.org/2000/svg" xmlns:xlink="http://www.w3.org/1999/xlink" viewBox="0 0 470 470" width="16" height="16" fill="#1b99d3"><defs><path id="a" d="M3 4h462.96v463H3z"/></defs><clipPath id="b"><use xlink:href="#a" overflow="visible"/></clipPath><path d="M465.266 368.754c.976 7.503-1.309 14.035-6.856 19.582l-65.117 64.625c-2.938 3.265-6.773 6.039-11.504 8.324-4.734 2.285-9.387 3.754-13.953 4.406-.328 0-1.309.082-2.941.246-1.629.164-3.75.246-6.364.246-6.199 0-16.238-1.062-30.109-3.183-13.875-2.121-30.848-7.344-50.918-15.668-20.074-8.325-42.84-20.809-68.301-37.453-25.457-16.645-52.551-39.497-81.273-68.543-22.848-22.524-41.778-44.067-56.793-64.629-15.016-20.563-27.09-39.575-36.231-57.039-9.14-17.461-15.996-33.293-20.562-47.493-4.571-14.195-7.672-26.437-9.305-36.718-1.633-10.282-2.285-18.36-1.957-24.235.324-5.875.488-9.14.488-9.793.653-4.57 2.121-9.218 4.407-13.953 2.285-4.734 5.058-8.566 8.324-11.504l65.117-65.117C85.988 6.285 91.211 4 97.086 4c4.242 0 7.996 1.222 11.258 3.671 3.265 2.45 6.039 5.469 8.324 9.059l52.387 99.387c2.937 5.222 3.754 10.937 2.449 17.137-1.305 6.203-4.078 11.425-8.324 15.667l-23.989 23.989c-.652.656-1.226 1.715-1.714 3.183-.489 1.469-.735 2.696-.735 3.672 1.305 6.856 4.242 14.688 8.813 23.5 3.918 7.836 9.957 17.383 18.117 28.645 8.16 11.258 19.746 24.234 34.762 38.922 14.687 15.015 27.742 26.683 39.168 35.007 11.421 8.321 20.968 14.442 28.64 18.36 7.668 3.914 13.547 6.281 17.625 7.097l6.117 1.223c.653 0 1.715-.246 3.184-.734 1.469-.489 2.531-1.059 3.184-1.715l27.906-28.395c5.879-5.222 12.73-7.836 20.562-7.836 5.551 0 9.957.981 13.219 2.938h.492l94.492 55.816c6.856 4.246 10.934 9.629 12.243 16.161zm0 0" clip-path="url(#b)"/></svg>