<svg xmlns="http://www.w3.org/2000/svg" viewBox="-49 141 512 512"><path d="M335 631.667c-.405 0-.811-.021-1.216-.064l-128-14.635c-5.845-.661-10.069-5.952-9.387-11.797.661-5.867 6.101-10.091 11.819-9.387L325.4 609.16l1.749-18.731c.533-5.867 5.803-10.219 11.627-9.621 5.845.555 10.176 5.76 9.621 11.627l-2.773 29.568a10.67 10.67 0 0 1-3.904 7.275 10.612 10.612 0 0 1-6.72 2.389zM76.248 602.099c-.427 0-.811-.021-1.237-.064l-114.56-13.099a10.605 10.605 0 0 1-7.168-4.011 10.7 10.7 0 0 1-2.219-7.915l42.667-341.333c.725-5.824 5.803-9.984 11.861-9.28l202.667 23.851c5.845.683 10.048 5.995 9.344 11.84-.661 5.845-5.739 10.133-11.84 9.344l-192.15-22.613-40.021 320.149 103.851 11.883c5.845.661 10.069 5.952 9.387 11.797-.619 5.44-5.249 9.451-10.582 9.451zm184.085-290.432a10.711 10.711 0 0 1-7.552-3.115c-4.16-4.16-4.16-10.923 0-15.083l53.333-53.333c4.16-4.16 10.923-4.16 15.083 0s4.16 10.923 0 15.083l-53.333 53.333a10.63 10.63 0 0 1-7.531 3.115z"/><path d="M79 631.667c-2.432 0-4.821-.832-6.72-2.389a10.715 10.715 0 0 1-3.904-7.275l-32-341.333c-.533-5.781 3.627-10.923 9.365-11.584l270.891-31.872c5.739-.832 11.157 3.499 11.84 9.344.704 5.845-3.477 11.157-9.344 11.84L58.584 289.032 88.6 609.16l351.808-40.213-40.021-320.107-18.88 2.219c-5.824.725-11.157-3.499-11.84-9.344-.704-5.845 3.477-11.157 9.344-11.84l29.397-3.456c5.739-.683 11.115 3.456 11.84 9.28l42.667 341.333c.363 2.816-.448 5.675-2.219 7.915-1.749 2.24-4.331 3.669-7.168 4.011L80.195 631.624c-.384.021-.79.043-1.195.043z"/><path d="M345.667 269c-29.419 0-53.333-23.936-53.333-53.333s23.915-53.333 53.333-53.333c29.419 0 53.333 23.936 53.333 53.333S375.085 269 345.667 269zm0-85.333c-17.643 0-32 14.357-32 32s14.357 32 32 32 32-14.357 32-32-14.358-32-32-32z"/></svg>