<svg xmlns="http://www.w3.org/2000/svg" viewBox="-49 141 512 512" fill="#0c81bf"><path d="M87.53 348.562a7.504 7.504 0 0 0 8.702-6.065c6.598-36.951 26.111-70.729 54.946-95.113 29.17-24.667 66.308-38.252 104.571-38.252 40.815 0 79.809 15.224 109.798 42.867a7.5 7.5 0 0 0 10.166-11.03c-32.767-30.204-75.372-46.838-119.964-46.838-41.804 0-82.381 14.844-114.257 41.798-31.498 26.635-52.816 63.545-60.027 103.93a7.5 7.5 0 0 0 6.065 8.703z"/><path d="M346.017 470.524a7.478 7.478 0 0 0 5.257-2.151c26.279-25.831 40.752-60.348 40.752-97.193 0-75.144-61.134-136.278-136.278-136.278-30.819 0-61.021 10.578-85.044 29.787-23.652 18.912-40.526 45.458-47.516 74.75a7.5 7.5 0 0 0 14.591 3.481c6.218-26.059 21.238-49.681 42.293-66.517 21.683-17.338 47.852-26.502 75.676-26.502 66.873 0 121.278 54.405 121.278 121.278 0 32.789-12.88 63.507-36.267 86.496a7.5 7.5 0 0 0 5.258 12.849zm-28.009 4.755c-18.747 11.238-40.276 17.178-62.26 17.178-33.428 0-64.563-13.311-87.672-37.481a7.5 7.5 0 0 0-10.604-.238 7.5 7.5 0 0 0-.238 10.604c25.965 27.158 60.952 42.115 98.514 42.115 24.7 0 48.896-6.678 69.972-19.313a7.5 7.5 0 0 0 2.577-10.289 7.5 7.5 0 0 0-10.289-2.576z"/><path d="M255.748 280.704c-18.697 0-36.643 5.656-51.899 16.357-14.907 10.456-26.202 24.94-32.665 41.888a7.5 7.5 0 0 0 4.335 9.68 7.498 7.498 0 0 0 9.68-4.335c11.083-29.063 39.434-48.59 70.548-48.59 41.617 0 75.476 33.858 75.476 75.475s-33.858 75.476-75.476 75.476c-15.522 0-30.43-4.673-43.111-13.515-12.404-8.648-21.838-20.637-27.283-34.672a7.5 7.5 0 0 0-13.984 5.426c6.527 16.823 17.83 31.191 32.688 41.55 15.21 10.605 33.084 16.211 51.69 16.211 49.888 0 90.476-40.587 90.476-90.476s-40.586-90.475-90.475-90.475z"/><path d="M71.319 435.523a7.498 7.498 0 0 0-10.132 3.136c-10.091 19.14-23.911 45.353-5.271 71.411a7.501 7.501 0 0 0 13.484-3.051c1.514-8.514 8.798-18.489 22.206-30.367 9.176 13.464 21.644 24.868 38.622 35.423a7.5 7.5 0 1 0 10.06-10.733c-13.336-18.643-3.311-37.522 8.297-59.383 10.34-19.473 21.84-41.151 13.625-63.282h51.721c3.553 19.865 20.946 34.995 41.817 34.995 23.431 0 42.494-19.063 42.494-42.494s-19.063-42.494-42.494-42.494c-20.87 0-38.262 15.128-41.817 34.992H64.867L30.721 338.25a7.498 7.498 0 0 0-4.479-1.485H-41.5a7.5 7.5 0 0 0-5.21 12.895c5.898 5.696 9.147 13.338 9.147 21.52s-3.249 15.824-9.146 21.519a7.5 7.5 0 0 0 5.209 12.896h67.741a7.498 7.498 0 0 0 4.479-1.485l34.151-25.431h8.604c5.668 9.724 5.769 20.11.451 33.965a7.5 7.5 0 0 0 14.003 5.376c3.859-10.053 7.708-24.167 2.098-39.34h55.631c10.182 17.631.635 35.61-10.322 56.246-8.297 15.625-17.349 32.67-16.356 50.23-7.978-7.166-14.203-14.884-19.047-23.522a7.504 7.504 0 0 0-5.143-3.7 7.515 7.515 0 0 0-6.141 1.558c-12.267 10.01-20.948 18.887-26.546 27.296-1.776-12.667 4.358-25.971 12.352-41.133a7.499 7.499 0 0 0-3.136-10.132zm184.429-91.837c15.16 0 27.494 12.333 27.494 27.494s-12.333 27.494-27.494 27.494c-12.56 0-23.172-8.469-26.445-19.995h26.447a7.5 7.5 0 0 0 0-15h-26.446c3.274-11.525 13.885-19.993 26.444-19.993zM23.755 390.594h-50.702c2.871-5.976 4.384-12.568 4.384-19.415 0-6.846-1.513-13.439-4.384-19.415h50.702l26.071 19.415-26.071 19.415z"/><path d="M455.5 584.863h-53.2l-41.456-71.217c45.173-33.355 71.947-86.089 71.947-142.469 0-38.807-12.322-75.65-35.633-106.547a7.5 7.5 0 0 0-11.974 9.034c21.332 28.273 32.607 61.993 32.607 97.513 0 53.746-26.574 103.887-71.089 134.129a161.269 161.269 0 0 1-34.149 17.671c-.38.142-.756.297-1.138.436h-.001l-.002.001c-17.781 6.511-36.508 9.813-55.661 9.813-19.126 0-37.855-3.302-55.664-9.813a161.662 161.662 0 0 1-35.328-18.138 155.88 155.88 0 0 1-7.117-5.114 7.5 7.5 0 0 0-9.063 11.952c.7.531 1.385 1.044 2.058 1.541l-41.446 71.208H55.997a7.5 7.5 0 0 0 0 15h57.43c.025 0 .049.005.073.005h54.31c.023 0 .045-.005.068-.005h175.733c.023 0 .045.005.068.005h54.31c.025 0 .049-.005.073-.005H455.5a7.5 7.5 0 0 0 0-15zm-107.101 0l-24.158-50.375c.631-.265 1.257-.541 1.885-.813.259-.112.519-.222.777-.335a179.603 179.603 0 0 0 4.309-1.965c.3-.141.598-.285.897-.429 1.42-.68 2.833-1.373 4.235-2.091l.147-.074a178.123 178.123 0 0 0 5.175-2.773c1.384-.77 2.759-1.555 4.121-2.361.206-.122.411-.248.617-.371.665-.398 1.331-.793 1.991-1.2l36.55 62.787h-36.546zm-38.287-45.147l21.651 45.147H179.729l21.659-45.15c17.515 5.648 35.768 8.515 54.362 8.515 18.617 0 36.87-2.867 54.362-8.512zm-147.004-17.669a176.652 176.652 0 0 0 24.16 12.421l-24.175 50.395h-36.546l36.561-62.816z"/></svg>