<svg xmlns="http://www.w3.org/2000/svg" viewBox="0 0 410 410" fill="#0c81bf"><path d="M269 269a8 8 0 0 0 0 16c4.414 0 8-3.586 8-8 0-4.418-3.586-8-8-8zm-108.801-8c-4.414 0-8-3.59-8-8 0-4.414 3.586-8 8-8 2.836 0 5.824 1.445 8.652 4.179 3.176 3.075 8.243 2.993 11.313-.187a7.994 7.994 0 0 0-.188-11.309c-4.058-3.929-8.121-6.152-11.777-7.367V221a8 8 0 0 0-16 0v9.375c-9.312 3.301-16 12.195-16 22.625 0 13.234 10.766 24 24 24 4.41 0 8 3.586 8 8 0 4.41-3.59 8-8 8-3.418 0-7.109-2.153-10.391-6.055a8 8 0 0 0-12.246 10.297c4.278 5.09 9.305 8.633 14.637 10.418V317a8 8 0 0 0 16 0v-9.375c9.309-3.305 16-12.199 16-22.625 0-13.235-10.766-24-24-24zm-64-128a8 8 0 0 0 8-8V93a8 8 0 0 0-16 0v32a8 8 0 0 0 8 8zm0 0"/><path d="M377.801 189v-64c0-22.059-17.946-40-40-40H293V24.199c0-13.234-10.766-24-24-24H120.199c-13.234 0-24 10.766-24 24V53h-24c-13.234 0-24 10.765-24 24v8h-8c-22.055 0-40 17.941-40 40v244.801c0 22.054 17.945 40 40 40H285c19.316 0 35.476-13.766 39.191-32h13.61c22.054 0 40-17.946 40-40V317h8c13.234 0 24-10.766 24-24v-72c0-17.645-14.36-32-32-32zm16 32c0 8.836-7.164 16-16 16v-32c8.82 0 16 7.176 16 16zm-56-120c13.234 0 24 10.765 24 24v112H325v-48c0-19.317-13.762-35.481-32-39.196V101h44.801zM112.199 24.199c0-4.414 3.586-8 8-8H269c4.41 0 8 3.586 8 8V149h-36.801V77c0-13.235-10.766-24-24-24h-104V24.199zm80 124.801V69h24c4.414 0 8 3.586 8 8v72h-32zm-48 0V69h32v80h-32zm-80-72c0-4.414 3.586-8 8-8h56v80h-64V77zm-24 24h8v48H41.91c-13.219 0-25.711-9.574-25.711-24 0-13.235 10.766-24 24-24zM285 393.801H40.199c-13.234 0-24-10.766-24-24V156.504A43.082 43.082 0 0 0 41.91 165H285c13.234 0 24 10.765 24 24v48h-56c-13.235 0-24 10.765-24 24v32c0 13.234 10.765 24 24 24h56v52.801c0 13.234-10.766 24-24 24zm76.801-56c0 13.234-10.766 24-24 24H325V317h36.801v20.801zm24-36.801H253c-4.414 0-8-3.59-8-8v-32c0-4.414 3.586-8 8-8h124.801a31.81 31.81 0 0 0 16-4.285V293c0 4.41-3.59 8-8 8zm0 0"/><path d="M337.801 269H301a8 8 0 0 0 0 16h36.801a8 8 0 0 0 0-16zm0 0"/></svg>